<?xml version="1.0" encoding="UTF-8"?> <!-- Generator: Adobe Illustrator 16.0.0, SVG Export Plug-In . SVG Version: 6.00 Build 0) --> <svg xmlns="http://www.w3.org/2000/svg" xmlns:xlink="http://www.w3.org/1999/xlink" id="Layer_1" x="0px" y="0px" width="432px" height="432px" viewBox="0 0 432 432" xml:space="preserve"> <g> <defs> <circle id="SVGID_1_" cx="216" cy="216" r="216"></circle> </defs> <clipPath id="SVGID_2_"> <use xlink:href="#SVGID_1_" overflow="visible"></use> </clipPath> <rect x="0" clip-path="url(#SVGID_2_)" fill="#003A5C" width="432" height="432"></rect> <g clip-path="url(#SVGID_2_)"> <path fill="#FFFFFF" d="M198.847-2.29c424.869,148.122-329.819,295.567,153.962,440.203 c-61.581,0.562-122.943,1.112-184.086,1.648C-217.65,293.36,570.602,147.42,195.281,1.415c-0.437-0.03-0.873-0.061-1.309-0.09 C568.469,147.338-221.28,293.32,163.605,439.598c-1.79,0.013-3.579,0.025-5.368,0.039 C-225.089,293.278,566.226,147.253,192.609,1.232c-0.432-0.029-0.863-0.058-1.294-0.086 c372.775,146.026-420.017,292.093-38.177,438.526c-54.075,0.385-107.952,0.758-161.631,1.12 C-324.658,290.396,534.272,142.437,155.894-4.732C170.073-3.917,184.39-3.103,198.847-2.29z"></path> </g> </g> </svg> 